<?xml version="1.0" encoding="utf-8"?>
<!-- Generator: Adobe Illustrator 18.1.1, SVG Export Plug-In . SVG Version: 6.00 Build 0)  -->
<!DOCTYPE svg PUBLIC "-//W3C//DTD SVG 1.1//EN" "http://www.w3.org/Graphics/SVG/1.1/DTD/svg11.dtd">
<svg version="1.1" id="Layer_1" xmlns="http://www.w3.org/2000/svg" xmlns:xlink="http://www.w3.org/1999/xlink" x="0px" y="0px"
	 viewBox="0 0 612 792" enable-background="new 0 0 612 792" xml:space="preserve">
<g>
	<path fill="#512200" stroke="#512200" stroke-miterlimit="10" d="M434.8,367.2c4.3,15.9,6.7,33.7,6.7,51.4c0,1.8,0,4.3,0,6.1
		l20.8,8l17.1-14.7l13.5,15.9l-26.3,21.4l-26.9-11c-3.1,23.9-10.4,46.5-20.8,65.5l3.7-4.9l20.2,11.6l19.6-11.6l11,17.7l-28.8,17.7
		l-31.8-19c-25.1,38.6-63.6,63.6-107.1,63.6s-82-25.1-107.1-63.6l-31.2,18.4l-28.8-17.7l11-17.7l19.6,11.6l20.2-11.6l1.2,1.8
		c-9.8-18.4-16.5-39.8-19-62.4l-26.3,10.4L119,432.7l13.5-15.9l17.1,14.7l20.2-8c0-2.4,0-4.3,0-6.7c0-17.7,2.4-34.9,6.7-51.4
		l-34.3-1.2l-14.7-30L146,325l9.8,20.2l23.3,1.2l0.6,6.7c14.1-41.6,41.6-75.3,75.9-91.8c0.6-12.9,11-23.3,24.5-23.3h56.9
		c13.5,0,24.5,11,24.5,24.5c0,0.6,0,1.2,0,1.8c32.4,17.7,58.1,50.8,71,91.2l0.6-9.2l23.3-1.2L466,325l18.4,9.2l-14.7,30L434.8,367.2
		z"/>
	<polygon fill="#512200" stroke="#512200" stroke-miterlimit="10" points="374.2,218.5 371.8,225.9 367.5,227.7 358.9,230.1 
		351.6,234.4 341.2,239.9 341.2,234.4 352.8,225.9 361.4,223.4 368.7,218.5 373,210 381,206.9 379.1,214.8 	"/>
	<polygon fill="#512200" stroke="#512200" stroke-miterlimit="10" points="257.3,230.1 248.8,227.7 244.5,225.9 242,218.5 
		237.2,214.8 235.3,206.9 243.3,210 247.6,218.5 254.9,223.4 263.5,225.9 275.1,234.4 275.1,239.9 264.7,234.4 	"/>
</g>
<text transform="matrix(1 0 0 1 -167.7275 953.7963)" font-family="'HelveticaNeue-Bold'" font-size="22.6666">Created by Andrey Semenenko</text>
<text transform="matrix(1 0 0 1 -167.7275 976.468)" font-family="'HelveticaNeue-Bold'" font-size="22.6666">from the Noun Project</text>
</svg>
